# AST/ASF file generated using VICON BodyLanguage
# -----------------------------------------------
:version 1.10
:name VICON
:units
  mass 1.0
  length 0.45
  angle deg
:documentation
   .ast/.asf automatically generated from VICON data using
   VICON BodyBuilder and BodyLanguage model FoxedUp or BRILLIANT.MOD
:root
   order TX TY TZ RX RY RZ
   axis XYZ
   position 0 0 0  
   orientation 0 0 0 
:bonedata
  begin
     id 1 
     name lhipjoint
     direction 0.596438 -0.722117 0.35044 
     length 2.43043 
     axis 0 0 0  XYZ
  end
  begin
     id 2 
     name lfemur
     direction 0.34202 -0.939693 0  
     length 7.0339  
     axis 0 0 20  XYZ
    dof rx ry rz
    limits (-160.0 20.0)
           (-70.0 70.0)
           (-60.0 70.0)
  end
  begin
     id 3 
     name ltibia
     direction 0.34202 -0.939693 0   
     length 7.56602   
     axis 0 0 20   XYZ
    dof rx
    limits (-10.0 170.0)
  end
  begin
     id 4 
     name lfoot
     direction 0.0985677 -0.270812 0.957572   
     length 1.85172   
     axis -90 7.62852e-016 20   XYZ
    dof rx rz
    limits (-45.0 90.0)
           (-70.0 20.0)
  end
  begin
     id 5 
     name ltoes
     direction 1.53534e-011 -4.21843e-011 1   
     length 0.929904   
     axis -90 7.62852e-016 20   XYZ
    dof rx
    limits (-90.0 20.0)
  end
  begin
     id 6 
     name rhipjoint
     direction -0.585088 -0.729594 0.354068   
     length 2.40552  
     axis 0 0 0  XYZ 
  end
  begin
     id 7 
     name rfemur
     direction -0.34202 -0.939693 0   
     length 7.12573   
     axis 0 0 -20   XYZ
    dof rx ry rz
    limits (-160.0 20.0)
           (-70.0 70.0)
           (-70.0 60.0)
  end
  begin
     id 8 
     name rtibia
     direction -0.34202 -0.939693 0   
     length 7.35777   
     axis 0 0 -20   XYZ
    dof rx
    limits (-10.0 170.0)
 end
 begin
     id 9 
     name rfoot
     direction -0.120907 -0.33219 0.935431   
     length 2.0994  
     axis -90 -7.62852e-016 -20   XYZ
    dof rx rz
    limits (-45.0 90.0)
           (-20.0 70.0)
  end
  begin
     id 10 
     name rtoes
     direction -1.53577e-011 -4.21787e-011 1   
     length 1.04244   
     axis -90 -7.62852e-016 -20   XYZ
    dof rx
    limits (-90.0 20.0)
  end
  begin
     id 11 
     name lowerback
     direction 0.00268363 0.993603 -0.112896   
     length 2.15839   
     axis 0 0 0   XYZ
    dof rx ry rz
    limits (-20.0 45.0)
           (-30.0 30.0)
           (-30.0 30.0)
  end
  begin
     id 12 
     name upperback
     direction 0.0272563 0.999411 -0.0208618   
     length 2.16443   
     axis 0 0 0   XYZ
    dof rx ry rz
    limits (-20.0 45.0)
           (-30.0 30.0)
           (-30.0 30.0)
  end
  begin
     id 13 
     name thorax
     direction 0.0254655 0.999174 0.0316806   
     length 2.19003   
     axis 0 0 0   XYZ
    dof rx ry rz
    limits (-20.0 45.0)
           (-30.0 30.0)
           (-30.0 30.0)
  end
  begin
     id 14 
     name lowerneck
     direction -0.0102178 0.988048 0.15381   
     length 1.61507   
     axis 0 0 0   XYZ
    dof rx ry rz
    limits (-20.0 45.0)
           (-30.0 30.0)
           (-30.0 30.0)
  end
  begin
     id 15 
     name upperneck
     direction -0.0061965 0.994088 -0.108398   
     length 1.64042   
     axis 0 0 0   XYZ
    dof rx ry rz
    limits (-20.0 45.0)
           (-30.0 30.0)
           (-30.0 30.0)
  end
  begin
     id 16
     name head
     direction -0.00151929 0.998591 -0.0530385  
     length 1.64343  
     axis 0 0 0   XYZ
    dof rx ry rz
    limits (-20.0 45.0)
           (-30.0 30.0)
           (-30.0 30.0)
  end
  begin
     id 17 
     name lclavicle
     direction 0.948974 0.284245 -0.136574  
     length 3.3483  
     axis 0 0 0   XYZ
    dof ry rz
    limits (-20.0 10.0)
           (0.0 20.0)
  end
  begin
     id 18 
     name lhumerus
     direction 1 -4.48961e-011 1.68576e-027   
     length 4.93485   
     axis -180 -30 -90   XYZ
    dof rx ry rz
    limits (-60.0 90.0)
           (-90.0 90.0)
           (-90.0 90.0)
  end
  begin
     id 19
     name lradius
     direction 1 -4.48965e-011 -2.46405e-027   
     length 3.41719   
     axis -180 -30 -90   XYZ
    dof rx
    limits (-10.0 170.0)
  end
  begin
     id 20
     name lwrist
     direction 1 -4.48968e-011 -8.00486e-028   
     length 1.7086   
     axis 3.27501e-015 90 90   XYZ
    dof ry
    limits (-180.0 0.0)
 end
  begin
     id 21 
     name lhand
     direction 1 -4.48977e-011 -1.60161e-027   
     length 0.6241   
     axis 1.02148e-015 90 90   XYZ
    dof rx rz
    limits (-90.0 90.0)
           (-45.0 45.0)
  end
  begin
     id 22 
     name lfingers
     direction 1 -4.49049e-011 -3.21275e-027   
     length 0.503166   
     axis 2.04295e-015 90 90   XYZ
    dof rx
    limits (0.0 90.0)
  end
  begin
     id 23
     name lthumb
     direction 0.707107 -6.34975e-011 0.707107   
     length 0.722448   
     axis -90 45 -1.62303e-014   XYZ
    dof rx rz
    limits (-45.0 45.0)
           (-45.0 45.0)
  end
  begin
     id 24 
     name rclavicle
     direction -0.904485 0.355099 -0.236246   
     length 3.18329  
     axis 0 0 0   XYZ 
    dof ry rz
    limits (-10.0 20.0)
           (-20.0 0.0)
  end
  begin
     id 25 
     name rhumerus
     direction -1 -4.48953e-011 1.32816e-027  
     length 5.22034   
     axis -180 30 90   XYZ
    dof rx ry rz
    limits (-90.0 60.0)
           (-90.0 90.0)
           (-90.0 90.0)
  end
  begin
     id 26 
     name rradius
     direction -1 -4.48965e-011 -3.93727e-027   
     length 3.41809   
     axis -180 30 90   XYZ
    dof rx
    limits (-10.0 170.0)
  end
  begin
     id 27 
     name rwrist
     direction -1 -4.48962e-011 -8.003e-028   
     length 1.70904   
     axis 3.27501e-015 -90 -90   XYZ
    dof ry
    limits (-180.0 0.0)
  end
  begin
     id 28
     name rhand
     direction -1 -4.49008e-011 -1.60365e-027   
     length 0.77534   
     axis 1.02148e-015 -90 -90   XYZ
    dof rx rz
    limits (-90.0 90.0)
           (-45.0 45.0)
  end
  begin
     id 29
     name rfingers
     direction -1 -4.49001e-011 -3.2064e-027   
     length 0.625099   
     axis 2.04295e-015 -90 -90   XYZ
    dof rx
    limits (0.0 90.0)
  end
  begin
     id 30
     name rthumb
     direction -0.707107 -6.34989e-011 0.707107   
     length 0.897521   
     axis -90 -45 1.62303e-014   XYZ
    dof rx rz
    limits (-45.0 45.0)
           (-45.0 45.0)
  end
:hierarchy
  begin
    root lhipjoint rhipjoint lowerback
    lhipjoint lfemur
    lfemur ltibia
    ltibia lfoot
    lfoot ltoes
    rhipjoint rfemur
    rfemur rtibia
    rtibia rfoot
    rfoot rtoes
    lowerback upperback
    upperback thorax
    thorax lowerneck lclavicle rclavicle
    lowerneck upperneck
    upperneck head
    lclavicle lhumerus
    lhumerus lradius
    lradius lwrist
    lwrist lhand lthumb
    lhand lfingers
    rclavicle rhumerus
    rhumerus rradius
    rradius rwrist
    rwrist rhand rthumb
    rhand rfingers
  end

#!OML:ASF \\sashay\E\Suitcase\Project 1\Capture day 1\Session 1\Male1.ASF
:FULLY-SPECIFIED
:DEGREES
114
root 0.823148 17.5138 -35.7221 6.34347 3.375 -2.76863
lowerback -3.38512 -1.97405 3.89309
upperback 1.43848 -2.99996 5.58609
thorax 3.4946 -1.47446 3.4107
lowerneck -4.00834 -9.69312 -9.1855
upperneck 2.68113 -12.6526 5.4283
head 2.60469 -6.29893 2.83198
rclavicle -1.09332e-014 1.27222e-014
rhumerus -29.3257 -7.2182 -75.8293
rradius 26.7502
rwrist -13.7151
rhand -18.9854 16.1392
rfingers 7.12502
rthumb 7.31927 -13.7142
lclavicle -1.09332e-014 1.27222e-014
lhumerus -42.5694 -1.50548 88.7451
lradius 44.921
lwrist -3.01838
lhand 1.04352 43.9042
lfingers 7.12502
lthumb 26.5895 72.0575
rfemur -12.4457 -1.21555 24.54
rtibia 26.7429
rfoot -20.5341 -10.0087
rtoes 13.3271
lfemur -13.418 -3.99255 -15.7505
ltibia 28.3951
lfoot -21.2995 4.57696
ltoes -1.16159
115
root 0.833183 17.5124 -35.7345 6.31202 3.24782 -2.77087
lowerback -3.13293 -1.89911 3.74457
upperback 1.47534 -2.87945 5.67087
thorax 3.39816 -1.42011 3.59794
lowerneck -4.16032 -9.63887 -9.20219
upperneck 2.69611 -12.5596 5.3035
head 2.62096 -6.2534 2.79166
rclavicle -1.09332e-014 3.02153e-014
rhumerus -29.2048 -7.29629 -75.5302
rradius 26.6388
rwrist -13.5147
rhand -19.4869 16.1028
rfingers 7.12502
rthumb 6.83515 -13.7669
lclavicle -1.09332e-014 3.02153e-014
lhumerus -42.2545 -1.40975 88.9914
lradius 44.5563
lwrist -3.05759
lhand 1.06655 42.9898
lfingers 7.12502
lthumb 26.6115 71.1398
rfemur -12.5324 -1.14478 24.4952
rtibia 26.8466
rfoot -20.5407 -10.0018
rtoes 13.1633
lfemur -13.391 -3.89015 -15.7918
ltibia 28.3356
lfoot -21.2165 4.6474
ltoes -1.99196
116
root 0.841694 17.5095 -35.746 6.28248 3.15861 -2.84257
lowerback -2.98078 -1.84805 3.64652
upperback 1.55856 -2.80466 5.76067
thorax 3.40542 -1.38661 3.75555
lowerneck -4.24684 -9.56043 -9.14665
upperneck 2.62533 -12.444 5.21722
head 2.59196 -6.19531 2.75827
rclavicle 2.18663e-014 -1.43125e-014
rhumerus -29.1767 -6.87521 -75.4816
rradius 26.8273
rwrist -13.8545
rhand -19.0099 16.218
rfingers 7.12502
rthumb 7.29557 -13.6362
lclavicle 2.18663e-014 -1.43125e-014
lhumerus -42.0547 -1.26379 89.1714
lradius 44.4119
lwrist -3.14653
lhand 1.25353 43.6295
lfingers 7.12502
lthumb 26.7905 71.7521
rfemur -12.5791 -1.08872 24.546
rtibia 26.9091
rfoot -20.5365 -10.005
rtoes 12.9959
lfemur -13.3672 -3.74799 -15.7331
ltibia 28.2805
lfoot -21.1727 4.64715
ltoes -2.80848
117
root 0.852003 17.5076 -35.7556 6.24922 2.94498 -2.96326
lowerback -2.79329 -1.80864 3.76069
upperback 1.64717 -2.74981 5.78506
thorax 3.38542 -1.35726 3.7253
lowerneck -4.41345 -9.41817 -9.17829
upperneck 2.65278 -12.2386 5.24235
head 2.62065 -6.09089 2.77737
rclavicle 8.94531e-015 4.77083e-015
rhumerus -28.8673 -6.89125 -75.4271
rradius 26.5271
rwrist -13.3588
rhand -19.3489 15.9903
rfingers 7.12502
rthumb 6.96832 -13.875
lclavicle 8.94531e-015 4.77083e-015
lhumerus -41.9894 -1.14801 89.2445
lradius 44.445
lwrist -3.02202
lhand 1.08347 43.3904
lfingers 7.12502
lthumb 26.6277 71.5379
rfemur -12.6409 -0.988359 24.6257
rtibia 26.9735
rfoot -20.471 -9.92692
rtoes 12.7959
lfemur -13.3149 -3.7473 -15.6461
ltibia 28.2401
lfoot -21.1216 4.86605
ltoes -3.33832
118
root 0.8647 17.5069 -35.7689 6.19841 2.71964 -3.05737
lowerback -2.56564 -1.68376 3.75004
upperback 1.7846 -2.57764 5.86032
thorax 3.39714 -1.27297 3.82556
lowerneck -4.68088 -9.35501 -9.13878
upperneck 2.67152 -12.132 5.22214
head 2.66315 -6.03419 2.75795
rclavicle 1.63003e-014 -1.43125e-014
rhumerus -28.6648 -6.81012 -75.3053
rradius 26.5035
rwrist -13.5008
rhand -19.239 16.5492
rfingers 7.12502
rthumb 7.07446 -13.3125
lclavicle 1.63003e-014 -1.43125e-014
lhumerus -41.7213 -1.02506 89.4068
lradius 44.3113
lwrist -3.2527
lhand 1.20204 43.6569
lfingers 7.12502
lthumb 26.7412 71.7871
rfemur -12.7031 -1.05008 24.6561
rtibia 27.0505
rfoot -20.3597 -9.6946
rtoes 12.5392
lfemur -13.235 -3.75955 -15.6043
ltibia 28.2037
lfoot -21.0879 5.06932
ltoes -3.55777
119
root 0.871736 17.507 -35.7809 6.20931 2.61795 -3.02562
lowerback -2.45546 -1.60509 3.53182
upperback 1.88908 -2.46615 5.93834
thorax 3.45169 -1.22396 4.03863
lowerneck -4.77098 -9.2693 -9.15102
upperneck 2.62112 -12.0083 5.2455
head 2.65591 -5.97064 2.77308
rclavicle -1.78906e-014 -6.36111e-015
rhumerus -28.2997 -6.94546 -75.0764
rradius 26.2052
rwrist -13.3471
rhand -19.3416 16.4432
rfingers 7.12502
rthumb 6.97542 -13.4219
lclavicle -1.78906e-014 -6.36111e-015
lhumerus -41.2097 -0.798001 89.5469
lradius 43.7809
lwrist -3.45521
lhand 1.35947 43.9739
lfingers 7.12502
lthumb 26.8919 72.081
rfemur -12.8066 -1.00048 24.5929
rtibia 27.1181
rfoot -20.3016 -9.69509
rtoes 12.3178
lfemur -13.2355 -3.68153 -15.6524
ltibia 28.1554
lfoot -21.0958 5.0102
ltoes -3.36112
120
root 0.88427 17.5072 -35.8004 6.18203 2.35595 -2.90355
lowerback -2.15453 -1.53109 3.40446
upperback 1.98806 -2.3476 5.94383
thorax 3.38395 -1.16885 4.12936
lowerneck -4.94121 -9.1381 -9.30737
upperneck 2.65108 -11.8122 5.33679
head 2.70186 -5.87078 2.83619
rclavicle -2.18663e-015 -9.54166e-015
rhumerus -28.2305 -6.63944 -74.9786
rradius 26.3722
rwrist -13.3598
rhand -19.0587 16.5535
rfingers 7.12502
rthumb 7.24846 -13.3024
lclavicle -2.18663e-015 -9.54166e-015
lhumerus -40.8847 -0.514686 89.6338
lradius 43.5567
lwrist -3.37926
lhand 1.50131 43.8032
lfingers 7.12502
lthumb 27.0276 71.8893
rfemur -12.9047 -1.10642 24.3788
rtibia 27.1798
rfoot -20.1488 -9.4294
rtoes 11.8945
lfemur -13.177 -3.47743 -15.8518
ltibia 28.11
lfoot -21.1128 4.93553
ltoes -2.73465
121
root 0.895504 17.5095 -35.8142 6.08794 2.39757 -2.88842
lowerback -1.85557 -1.51945 3.27751
upperback 2.09028 -2.31577 6.0319
thorax 3.32856 -1.15814 4.30197
lowerneck -5.0915 -9.0345 -9.23765
upperneck 2.65103 -11.6605 5.25641
head 2.70578 -5.79428 2.80063
rclavicle -1.25234e-014 2.06736e-014
rhumerus -27.8832 -6.9388 -74.6971
rradius 26.1136
rwrist -12.8439
rhand -19.4772 16.0592
rfingers 7.12502
rthumb 6.84454 -13.8102
lclavicle -1.25234e-014 2.06736e-014
lhumerus -40.7531 -0.208395 89.8073
lradius 43.3624
lwrist -3.40401
lhand 0.834616 42.9219
lfingers 7.12502
lthumb 26.3895 71.1054
rfemur -12.8928 -1.1313 24.3245
rtibia 27.2513
rfoot -20.1279 -9.5113
rtoes 11.4448
lfemur -13.0711 -3.66668 -15.9028
ltibia 28.0434
lfoot -21.0853 4.95777
ltoes -2.07523
122
root 0.903598 17.5114 -35.8285 5.99291 2.25464 -2.97919
lowerback -1.54761 -1.36181 3.16105
upperback 2.21031 -2.0919 6.17279
thorax 3.27749 -1.05217 4.53331
lowerneck -5.1933 -8.99635 -9.08621
upperneck 2.60649 -11.6021 5.10345
head 2.68098 -5.76522 2.72299
rclavicle -1.82882e-014 -1.59028e-015
rhumerus -27.6774 -7.39863 -74.2647
rradius 25.8821
rwrist -12.5958
rhand -18.9737 16.6176
rfingers 7.12502
rthumb 7.33058 -13.2354
lclavicle -1.82882e-014 -1.59028e-015
lhumerus -40.4165 -0.1155 90.0697
lradius 43.0946
lwrist -3.51457
lhand 1.16493 43.7558
lfingers 7.12502
lthumb 26.7057 71.8915
rfemur -12.8861 -1.07992 24.3863
rtibia 27.2835
rfoot -20.0424 -9.50239
rtoes 10.9026
lfemur -12.9593 -3.72249 -15.8424
ltibia 28.0032
lfoot -21.0644 5.06603
ltoes -1.55761
123
root 0.915611 17.5146 -35.8421 6.01934 1.9544 -2.83671
lowerback -1.41739 -1.21955 2.863
upperback 2.40845 -1.90001 6.22829
thorax 3.41067 -0.96594 4.77159
lowerneck -5.5491 -8.8952 -8.86085
upperneck 2.5919 -11.4415 4.91244
head 2.69738 -5.68238 2.61523
rclavicle -4.77083e-015 1.59028e-015
rhumerus -27.2964 -7.3696 -74.1566
rradius 25.943
rwrist -12.7641
rhand -19.6501 15.6417
rfingers 7.12502
rthumb 6.67761 -14.233
lclavicle -4.77083e-015 1.59028e-015
lhumerus -40.0857 -0.0388051 90.2832
lradius 43.0547
lwrist -3.54428
lhand 1.09469 43.9584
lfingers 7.12502
lthumb 26.6385 72.1043
rfemur -12.9786 -0.939181 24.1542
rtibia 27.2753
rfoot -19.9228 -9.42077
rtoes 10.5002
lfemur -12.9511 -3.5387 -16.0751
ltibia 27.9832
lfoot -21.0769 5.12241
ltoes -1.20458
124
root 0.930047 17.5137 -35.8611 5.79186 1.78587 -2.9124
lowerback -0.873047 -1.16293 3.03639
upperback 2.56782 -1.80245 6.25107
thorax 3.25773 -0.913908 4.71122
lowerneck -5.77943 -8.73282 -8.77672
upperneck 2.63132 -11.2082 4.8484
head 2.72498 -5.56425 2.58448
rclavicle -2.38542e-015 -7.95139e-015
rhumerus -27.1222 -7.23764 -74.1332
rradius 26.0021
rwrist -12.6484
rhand -20.2766 15.0379
rfingers 7.12502
rthumb 6.07278 -14.855
lclavicle -2.38542e-015 -7.95139e-015
lhumerus -39.9796 0.123086 90.365
lradius 43.0642
lwrist -3.25512
lhand 0.917164 43.7569
lfingers 7.12502
lthumb 26.4686 71.9284
rfemur -12.8286 -0.971285 24.1602
rtibia 27.299
rfoot -19.8422 -9.27249
rtoes 10.3517
lfemur -12.7221 -3.46933 -16.0784
ltibia 27.9673
lfoot -21.0657 5.19953
ltoes -1.1026
